<?xml version="1.0" encoding="UTF-8" standalone="no"?>
<!-- Created with Inkscape (http://www.inkscape.org/) -->

<svg
   width="210mm"
   height="297mm"
   viewBox="0 0 210 297"
   version="1.1"
   id="svg5"
   xml:space="preserve"
   inkscape:version="1.2.1 (9c6d41e410, 2022-07-14)"
   sodipodi:docname="help.svg"
   inkscape:export-filename="faviconsf.png"
   inkscape:export-xdpi="11.664642"
   inkscape:export-ydpi="11.664642"
   xmlns:inkscape="http://www.inkscape.org/namespaces/inkscape"
   xmlns:sodipodi="http://sodipodi.sourceforge.net/DTD/sodipodi-0.dtd"
   xmlns="http://www.w3.org/2000/svg"
   xmlns:svg="http://www.w3.org/2000/svg"><sodipodi:namedview
     id="namedview7"
     pagecolor="#ffffff"
     bordercolor="#000000"
     borderopacity="0.25"
     inkscape:showpageshadow="2"
     inkscape:pageopacity="0.0"
     inkscape:pagecheckerboard="0"
     inkscape:deskcolor="#d1d1d1"
     inkscape:document-units="mm"
     showgrid="false"
     inkscape:zoom="0.34387819"
     inkscape:cx="1597.9496"
     inkscape:cy="764.8057"
     inkscape:window-width="1920"
     inkscape:window-height="1009"
     inkscape:window-x="1912"
     inkscape:window-y="-5"
     inkscape:window-maximized="1"
     inkscape:current-layer="layer1"><inkscape:page
       x="0"
       y="0"
       width="210"
       height="297"
       id="page1626" /><inkscape:page
       x="220"
       y="0"
       width="210"
       height="297"
       id="page1628" /><inkscape:page
       x="440"
       y="0"
       width="210"
       height="297"
       id="page3628" /></sodipodi:namedview><defs
     id="defs2"><clipPath
       clipPathUnits="userSpaceOnUse"
       id="clipPath280"><path
         style="fill:#000000;stroke-width:0.264583"
         d="M 25.389594,144.44726 H 147.41589 l 2.89051,-2.89051 V 119.68264 H 31.483096 l -2.773325,2.77332 v 19.17891 z"
         id="path282" /></clipPath><clipPath
       clipPathUnits="userSpaceOnUse"
       id="clipPath298"><path
         style="fill:#000000;stroke-width:0.264583"
         d="m 22.367532,131.35689 h 67.898443 l 1.486982,-1.48698 v -12.1681 H 25.6347 l -1.591697,1.59169 v 10.68113 z"
         id="path300" /></clipPath><clipPath
       clipPathUnits="userSpaceOnUse"
       id="clipPath317"><path
         style="fill:#000000;stroke-width:0.264583"
         d="m 136.48165,133.10516 h 15.16463 l -1.43649,1.43649 v 10.70706 l -1.59199,1.59198 h -13.38012 l 1.58088,-1.58088 v -12.15465 z"
         id="path319" /></clipPath><clipPath
       clipPathUnits="userSpaceOnUse"
       id="clipPath317-4"><path
         style="fill:#000000;stroke-width:0.264583"
         d="m 136.48165,133.10516 h 15.16463 l -1.43649,1.43649 v 10.70706 l -1.59199,1.59198 h -13.38012 l 1.58088,-1.58088 v -12.15465 z"
         id="path319-8" /></clipPath><clipPath
       clipPathUnits="userSpaceOnUse"
       id="clipPath298-6"><path
         style="fill:#000000;stroke-width:0.264583"
         d="m 22.367532,131.35689 h 67.898443 l 1.486982,-1.48698 v -12.1681 H 25.6347 l -1.591697,1.59169 v 10.68113 z"
         id="path300-3" /></clipPath><pattern
       id="EMFhbasepattern"
       patternUnits="userSpaceOnUse"
       width="6"
       height="6"
       x="0"
       y="0" /><clipPath
       clipPathUnits="userSpaceOnUse"
       id="clipPath1540"><path
         style="fill:none;stroke:none;stroke-width:0.264583px;stroke-linecap:butt;stroke-linejoin:miter;stroke-opacity:1"
         d="m 33.935435,193.58159 2.856288,-2.85629 v -18.80391 l 2.992302,-2.9923 h 24.754504 l -2.822284,2.82229 v 18.87191 l -2.9753,2.9753 z"
         id="path1542" /></clipPath><clipPath
       clipPathUnits="userSpaceOnUse"
       id="clipPath1540-0"><path
         style="fill:none;stroke:none;stroke-width:0.264583px;stroke-linecap:butt;stroke-linejoin:miter;stroke-opacity:1"
         d="m 33.935435,193.58159 2.856288,-2.85629 v -18.80391 l 2.992302,-2.9923 h 24.754504 l -2.822284,2.82229 v 18.87191 l -2.9753,2.9753 z"
         id="path1542-3" /></clipPath><clipPath
       clipPathUnits="userSpaceOnUse"
       id="clipPath1540-8"><path
         style="fill:none;stroke:none;stroke-width:0.264583px;stroke-linecap:butt;stroke-linejoin:miter;stroke-opacity:1"
         d="m 33.935435,193.58159 2.856288,-2.85629 v -18.80391 l 2.992302,-2.9923 h 24.754504 l -2.822284,2.82229 v 18.87191 l -2.9753,2.9753 z"
         id="path1542-2" /></clipPath><clipPath
       clipPathUnits="userSpaceOnUse"
       id="clipPath1540-0-9"><path
         style="fill:none;stroke:none;stroke-width:0.264583px;stroke-linecap:butt;stroke-linejoin:miter;stroke-opacity:1"
         d="m 33.935435,193.58159 2.856288,-2.85629 v -18.80391 l 2.992302,-2.9923 h 24.754504 l -2.822284,2.82229 v 18.87191 l -2.9753,2.9753 z"
         id="path1542-3-4" /></clipPath><clipPath
       clipPathUnits="userSpaceOnUse"
       id="clipPath1540-8-5"><path
         style="fill:none;stroke:none;stroke-width:0.264583px;stroke-linecap:butt;stroke-linejoin:miter;stroke-opacity:1"
         d="m 33.935435,193.58159 2.856288,-2.85629 v -18.80391 l 2.992302,-2.9923 h 24.754504 l -2.822284,2.82229 v 18.87191 l -2.9753,2.9753 z"
         id="path1542-2-4" /></clipPath><clipPath
       clipPathUnits="userSpaceOnUse"
       id="clipPath2831"><path
         style="fill:none;stroke:none;stroke-width:0.264583px;stroke-linecap:butt;stroke-linejoin:miter;stroke-opacity:1"
         d="m 29.446979,242.78456 h 73.651451 l -3.196322,3.19633 v 18.7019 l -2.856291,2.85628 H 29.446979 Z"
         id="path2833" /></clipPath><clipPath
       clipPathUnits="userSpaceOnUse"
       id="clipPath2831-3"><path
         style="fill:none;stroke:none;stroke-width:0.264583px;stroke-linecap:butt;stroke-linejoin:miter;stroke-opacity:1"
         d="m 29.446979,242.78456 h 73.651451 l -3.196322,3.19633 v 18.7019 l -2.856291,2.85628 H 29.446979 Z"
         id="path2833-6" /></clipPath><clipPath
       clipPathUnits="userSpaceOnUse"
       id="clipPath1540-8-5-3"><path
         style="fill:none;stroke:none;stroke-width:0.264583px;stroke-linecap:butt;stroke-linejoin:miter;stroke-opacity:1"
         d="m 33.935435,193.58159 2.856288,-2.85629 v -18.80391 l 2.992302,-2.9923 h 24.754504 l -2.822284,2.82229 v 18.87191 l -2.9753,2.9753 z"
         id="path1542-2-4-8" /></clipPath><clipPath
       clipPathUnits="userSpaceOnUse"
       id="clipPath1540-0-1"><path
         style="fill:none;stroke:none;stroke-width:0.264583px;stroke-linecap:butt;stroke-linejoin:miter;stroke-opacity:1"
         d="m 33.935435,193.58159 2.856288,-2.85629 v -18.80391 l 2.992302,-2.9923 h 24.754504 l -2.822284,2.82229 v 18.87191 l -2.9753,2.9753 z"
         id="path1542-3-6" /></clipPath><clipPath
       clipPathUnits="userSpaceOnUse"
       id="clipPath1540-0-4"><path
         style="fill:none;stroke:none;stroke-width:0.264583px;stroke-linecap:butt;stroke-linejoin:miter;stroke-opacity:1"
         d="m 33.935435,193.58159 2.856288,-2.85629 v -18.80391 l 2.992302,-2.9923 h 24.754504 l -2.822284,2.82229 v 18.87191 l -2.9753,2.9753 z"
         id="path1542-3-65" /></clipPath><clipPath
       clipPathUnits="userSpaceOnUse"
       id="clipPath1540-0-0"><path
         style="fill:none;stroke:none;stroke-width:0.264583px;stroke-linecap:butt;stroke-linejoin:miter;stroke-opacity:1"
         d="m 33.935435,193.58159 2.856288,-2.85629 v -18.80391 l 2.992302,-2.9923 h 24.754504 l -2.822284,2.82229 v 18.87191 l -2.9753,2.9753 z"
         id="path1542-3-3" /></clipPath><clipPath
       clipPathUnits="userSpaceOnUse"
       id="clipPath1540-0-09"><path
         style="fill:none;stroke:none;stroke-width:0.264583px;stroke-linecap:butt;stroke-linejoin:miter;stroke-opacity:1"
         d="m 33.935435,193.58159 2.856288,-2.85629 v -18.80391 l 2.992302,-2.9923 h 24.754504 l -2.822284,2.82229 v 18.87191 l -2.9753,2.9753 z"
         id="path1542-3-1" /></clipPath><clipPath
       id="freepik--clip-path--inject-378"><rect
         x="55.669998"
         y="159"
         width="230"
         height="228"
         style="fill:none"
         id="rect2" /></clipPath><clipPath
       id="freepik--clip-path-2--inject-378"><path
         d="m 224.07,184.9 c 0,0 25.61,30.42 31,36 5.39,5.58 5.59,9.63 3.85,12.13 -1.74,2.5 -14.82,7.13 -28.3,15.79 -13.48,8.66 -51.8,31 -52.18,31.78 -0.38,0.78 -4.05,-27 -4.05,-27 l 64.12,-26.38 -0.19,-1.93 -20.8,-38.51 z"
         style="fill:#ffffff;stroke:#263238;stroke-width:0.75px;stroke-linecap:round;stroke-linejoin:round"
         id="path5" /></clipPath><clipPath
       id="freepik--clip-path-3--inject-378"><path
         d="m 157.76,389.39 c 10.46,-1.76 23.86,-8.95 27.85,-18 -3,-15.69 -6.79,-37.79 -6.79,-51.31 0,-22.72 6,-35.62 3.27,-51 -2.73,-15.38 -8.47,-25.41 -14.63,-29.46 0,0 -9.43,2.5 -19.06,11.55 -9.63,9.05 -18.1,24.61 -21.4,39.44 -3.3,14.83 -7.7,60.46 -7.7,72.4 0,11.94 -0.86,26.76 -0.86,26.76 11.53,0 23.06,0 34.59,0 a 26.46,26.46 0 0 0 4.73,-0.38 z"
         style="fill:#ffffff;stroke:#263238;stroke-width:0.75px;stroke-linecap:round;stroke-linejoin:round"
         id="path8" /></clipPath><clipPath
       id="freepik--clip-path-4--inject-378"><path
         d="m 179.78,214.93 c 0,0 0.58,7.51 1.16,11.17 0.58,3.66 -8.47,13.9 -8.47,13.9 l 13.09,19.83 14.83,-11.55 c 0,0 21,-1.54 22.91,-3.28 1.91,-1.74 1.93,-20.79 1.93,-20.79 l 5,-2.89 c 0,0 -4.62,-20 -5.77,-24.46 l -1.16,-4.42 c 0,0 6.74,-2.32 5.2,-9 -1.54,-6.68 -11.36,-10 -21.18,-8.48 -9.82,1.52 -12.32,5.2 -12.32,5.2 0,0 -13.87,-0.19 -21.76,6.36 -7.89,6.55 -3.08,16.94 -0.58,20.6 a 57.23,57.23 0 0 0 7.12,7.81 z"
         style="fill:#ffffff;stroke:#263238;stroke-width:0.75px;stroke-linecap:round;stroke-linejoin:round"
         id="path11" /></clipPath><clipPath
       id="freepik--clip-path-5--inject-378"><path
         d="m 194.8,224.56 c 0,0 -1.15,-12.13 -7.12,-12.51 -5.97,-0.38 -5.78,8.28 -4,14.25 1.78,5.97 6,7.89 9.43,4.81"
         style="fill:#92e3a9;stroke:#263238;stroke-width:0.75px;stroke-linecap:round;stroke-linejoin:round"
         id="path14" /></clipPath><clipPath
       id="freepik--clip-path-6--inject-378"><path
         d="m 173,232.65 19.26,29.27 -8.86,11.36 a 223.78,223.78 0 0 0 -13.28,-22.34 c -6.55,-9.24 -7.32,-10.78 -7.32,-10.78 z"
         style="fill:#ffffff;stroke:#263238;stroke-width:0.75px;stroke-linecap:round;stroke-linejoin:round"
         id="path17" /></clipPath><clipPath
       id="freepik--clip-path-7--inject-378"><path
         d="m 167.85,296.77 c 0,0 -5.59,-23.3 -7.9,-28.5 -2.31,-5.2 -15.4,-10 -21.76,1.35 -6.36,11.35 -0.58,24.26 1.74,33.5 2.32,9.24 16.94,51 19.06,56.23 2.12,5.23 6,4 8.09,3.47 2.09,-0.53 60.65,-47.76 60.65,-47.76 L 223.11,304.67 177.67,328 Z"
         style="fill:#ffffff;stroke:#263238;stroke-width:0.75px;stroke-linecap:round;stroke-linejoin:round"
         id="path20" /></clipPath></defs><g
     inkscape:label="Camada 1"
     inkscape:groupmode="layer"
     id="layer1"><text
       xml:space="preserve"
       style="font-style:normal;font-variant:normal;font-weight:bold;font-stretch:normal;font-size:17.5348px;font-family:'Myanmar Text';-inkscape-font-specification:'Myanmar Text, Bold';font-variant-ligatures:normal;font-variant-caps:normal;font-variant-numeric:normal;font-variant-east-asian:normal;fill:#4d4d4d;fill-opacity:1;stroke-width:3.1097"
       x="51.624123"
       y="40.842915"
       id="text371-5-1-6-6"
       inkscape:export-filename="hd.png"
       inkscape:export-xdpi="96"
       inkscape:export-ydpi="96"
       transform="scale(0.96324155,1.0381612)"><tspan
         sodipodi:role="line"
         id="tspan369-7-64-5-8"
         style="font-style:normal;font-variant:normal;font-weight:bold;font-stretch:normal;font-size:17.5348px;font-family:'Myanmar Text';-inkscape-font-specification:'Myanmar Text, Bold';font-variant-ligatures:normal;font-variant-caps:normal;font-variant-numeric:normal;font-variant-east-asian:normal;fill:#4d4d4d;fill-opacity:1;stroke-width:3.1097"
         x="51.624123"
         y="40.842915">helpdesk</tspan></text><path
       d="m 35.232751,27.269857 c -5.208668,0 -9.429098,4.220437 -9.429098,9.429106 v 1.813293 c 0,0.602908 -0.48506,1.087963 -1.08797,1.087963 -0.60292,0 -1.08798,-0.485055 -1.08798,-1.087963 v -1.813293 c 0,-6.409979 5.19508,-11.60505 11.605048,-11.60505 6.40998,0 11.60505,5.195071 11.60505,11.60505 v 6.532365 c 0,2.20315 -1.78609,3.989246 -3.99377,3.989246 l -5.00014,-0.0047 c -0.37626,0.648245 -1.07891,1.087981 -1.88582,1.087981 h -1.450628 c -1.20131,0 -2.17595,-0.974652 -2.17595,-2.175962 0,-1.201301 0.97464,-2.175944 2.17595,-2.175944 h 1.450628 c 0.80691,0 1.50956,0.439718 1.88582,1.087972 l 5.00467,0.0037 c 1.00185,0 1.8133,-0.811443 1.8133,-1.813292 V 36.69802 c 0,-5.20867 -4.22044,-9.429097 -9.42911,-9.429097 z m -5.077208,7.253162 h 0.72532 c 0.80238,0 1.45063,0.648245 1.45063,1.450623 v 5.077219 c 0,0.802378 -0.64825,1.450623 -1.45063,1.450623 h -0.72532 c -1.60022,0 -2.90126,-1.301041 -2.90126,-2.901265 v -2.175944 c 0,-1.600224 1.30104,-2.901256 2.90126,-2.901256 z m 10.154418,0 c 1.60023,0 2.90126,1.301032 2.90126,2.901256 v 2.175944 c 0,1.600224 -1.30103,2.901265 -2.90126,2.901265 h -0.72531 c -0.80239,0 -1.45063,-0.648245 -1.45063,-1.450623 v -5.077219 c 0,-0.802378 0.64824,-1.450623 1.45063,-1.450623 z"
       id="path4759-7-1-8"
       style="fill:#008000;stroke-width:0.0453322" /><text
       xml:space="preserve"
       style="font-style:normal;font-variant:normal;font-weight:bold;font-stretch:condensed;font-size:7.42412px;font-family:'Myriad Pro';-inkscape-font-specification:'Myriad Pro, Bold Condensed';font-variant-ligatures:normal;font-variant-caps:normal;font-variant-numeric:normal;font-variant-east-asian:normal;fill:#008000;fill-opacity:1;stroke-width:1.31666"
       x="20.997944"
       y="53.851498"
       id="text371-5-2-1-9-6-8"
       transform="scale(1.115771,0.89624126)"><tspan
         sodipodi:role="line"
         id="tspan369-7-6-0-1-7-3"
         style="font-style:normal;font-variant:normal;font-weight:bold;font-stretch:condensed;font-size:7.42412px;font-family:'Myriad Pro';-inkscape-font-specification:'Myriad Pro, Bold Condensed';font-variant-ligatures:normal;font-variant-caps:normal;font-variant-numeric:normal;font-variant-east-asian:normal;fill:#008000;fill-opacity:1;stroke-width:1.31666"
         x="20.997944"
         y="53.851498">SF</tspan></text><text
       xml:space="preserve"
       style="font-style:normal;font-variant:normal;font-weight:bold;font-stretch:normal;font-size:17.5348px;font-family:'Myanmar Text';-inkscape-font-specification:'Myanmar Text, Bold';font-variant-ligatures:normal;font-variant-caps:normal;font-variant-numeric:normal;font-variant-east-asian:normal;fill:#4d4d4d;fill-opacity:1;stroke-width:3.1097"
       x="50.758221"
       y="84.289963"
       id="text371-5-1-6-6-5"
       inkscape:export-filename="hd.png"
       inkscape:export-xdpi="96"
       inkscape:export-ydpi="96"
       transform="scale(0.96324155,1.0381612)"><tspan
         sodipodi:role="line"
         id="tspan369-7-64-5-8-6"
         style="font-style:normal;font-variant:normal;font-weight:bold;font-stretch:normal;font-size:17.5348px;font-family:'Myanmar Text';-inkscape-font-specification:'Myanmar Text, Bold';font-variant-ligatures:normal;font-variant-caps:normal;font-variant-numeric:normal;font-variant-east-asian:normal;fill:#4d4d4d;fill-opacity:1;stroke-width:3.1097"
         x="50.758221"
         y="84.289963">Helpdesk</tspan></text><path
       d="m 34.398681,72.374888 c -5.208668,0 -9.429098,4.22044 -9.429098,9.42911 v 1.8133 c 0,0.6029 -0.48506,1.08796 -1.08797,1.08796 -0.60292,0 -1.08798,-0.48506 -1.08798,-1.08796 v -1.8133 c 0,-6.40998 5.19508,-11.60505 11.605048,-11.60505 6.40998,0 11.60505,5.19507 11.60505,11.60505 v 6.53237 c 0,2.20315 -1.78609,3.98924 -3.99377,3.98924 l -5.00014,-0.005 c -0.37626,0.64825 -1.07891,1.08799 -1.88582,1.08799 h -1.450628 c -1.20131,0 -2.17595,-0.97466 -2.17595,-2.17597 0,-1.2013 0.97464,-2.17594 2.17595,-2.17594 h 1.450628 c 0.80691,0 1.50956,0.43972 1.88582,1.08797 l 5.00467,0.004 c 1.00185,0 1.8133,-0.81144 1.8133,-1.81329 v -6.53231 c 0,-5.20867 -4.22044,-9.4291 -9.42911,-9.4291 z m -5.077208,7.25317 h 0.72532 c 0.80238,0 1.45063,0.64824 1.45063,1.45062 v 5.07722 c 0,0.80238 -0.64825,1.45062 -1.45063,1.45062 h -0.72532 c -1.60022,0 -2.90126,-1.30104 -2.90126,-2.90126 v -2.17595 c 0,-1.60022 1.30104,-2.90125 2.90126,-2.90125 z m 10.154418,0 c 1.60023,0 2.90126,1.30103 2.90126,2.90126 v 2.17594 c 0,1.60022 -1.30103,2.90126 -2.90126,2.90126 h -0.72531 c -0.80239,0 -1.45063,-0.64824 -1.45063,-1.45062 v -5.07722 c 0,-0.80238 0.64824,-1.45062 1.45063,-1.45062 z"
       id="path4759-7-1-8-0"
       style="fill:#008000;stroke-width:0.0453322" /><text
       xml:space="preserve"
       style="font-style:normal;font-variant:normal;font-weight:bold;font-stretch:condensed;font-size:7.42412px;font-family:'Myriad Pro';-inkscape-font-specification:'Myriad Pro, Bold Condensed';font-variant-ligatures:normal;font-variant-caps:normal;font-variant-numeric:normal;font-variant-east-asian:normal;fill:#008000;fill-opacity:1;stroke-width:1.31666"
       x="20.250416"
       y="104.17838"
       id="text371-5-2-1-9-6-8-6"
       transform="scale(1.115771,0.89624126)"><tspan
         sodipodi:role="line"
         id="tspan369-7-6-0-1-7-3-3"
         style="font-style:normal;font-variant:normal;font-weight:bold;font-stretch:condensed;font-size:7.42412px;font-family:'Myriad Pro';-inkscape-font-specification:'Myriad Pro, Bold Condensed';font-variant-ligatures:normal;font-variant-caps:normal;font-variant-numeric:normal;font-variant-east-asian:normal;fill:#008000;fill-opacity:1;stroke-width:1.31666"
         x="20.250416"
         y="104.17838">SF</tspan></text><path
       d="m 80.610627,144.54031 c -25.07897,0 -45.39978,20.32106 -45.39978,45.40024 v 8.73087 c 0,2.90294 -2.33549,5.23845 -5.23842,5.23845 -2.90297,0 -5.23846,-2.33551 -5.23846,-5.23845 v -8.73087 c 0,-30.8634 25.01358,-55.87721 55.87666,-55.87721 30.863163,0 55.876713,25.01381 55.876713,55.87721 v 31.45281 c 0,10.60798 -8.59979,19.20786 -19.22944,19.20786 l -24.074983,-0.0231 c -1.81164,3.12125 -5.19476,5.23853 -9.07996,5.23853 h -6.98457 c -5.78411,0 -10.47686,-4.69288 -10.47686,-10.47706 0,-5.78418 4.69275,-10.47702 10.47686,-10.47702 h 6.98457 c 3.8852,0 7.26832,2.11725 9.07996,5.2385 l 24.096813,0.0193 c 4.82375,0 8.73079,-3.90702 8.73079,-8.73083 v -31.4525 c 0,-25.07923 -20.32084,-45.40025 -45.399893,-45.40025 z m -24.44603,34.9233 h 3.49232 c 3.86335,0 6.98461,3.12124 6.98461,6.9846 v 24.44637 c 0,3.8634 -3.12126,6.98462 -6.98461,6.98462 h -3.49232 c -7.70484,0 -13.96917,-6.26441 -13.96917,-13.96933 v -10.47694 c 0,-7.70496 6.26433,-13.96932 13.96917,-13.96932 z m 48.892143,0 c 7.70484,0 13.96913,6.26436 13.96913,13.96932 v 10.47694 c 0,7.70492 -6.26429,13.96933 -13.96913,13.96933 h -3.49232 c -3.863343,0 -6.984583,-3.12122 -6.984583,-6.98462 v -24.44637 c 0,-3.86336 3.12124,-6.9846 6.984583,-6.9846 z"
       id="path4759-7-1-8-5-2"
       style="opacity:1;fill:#00e600;fill-opacity:1;stroke:#008000;stroke-width:0.218269;stroke-opacity:1"
       inkscape:export-filename="brand.png"
       inkscape:export-xdpi="25.4"
       inkscape:export-ydpi="25.4" /><circle
       style="fill:#013763;fill-opacity:1;stroke-width:7.35536;stroke-linejoin:bevel"
       id="path1201-9"
       cx="326.22989"
       cy="205.43248"
       inkscape:export-filename="faviconsf.png"
       inkscape:export-xdpi="25.4"
       inkscape:export-ydpi="25.4"
       r="78.303566" /><text
       xml:space="preserve"
       style="font-weight:bold;font-stretch:condensed;font-size:132.366px;font-family:'Myriad Pro';-inkscape-font-specification:'Myriad Pro, Bold Condensed';fill:#ffffff;fill-opacity:1;stroke:none;stroke-width:18.8822;stroke-linejoin:bevel"
       x="275.33533"
       y="250.03972"
       id="text2070-2-1-8"><tspan
         sodipodi:role="line"
         id="tspan2068-8-5-2"
         style="fill:#ffffff;stroke-width:18.8822"
         x="275.33533"
         y="250.03972">SF</tspan></text><path
       d="m 381.99352,63.54984 c 0,24.33622 -24.27268,44.05513 -54.22171,44.05513 -7.8579,0 -15.31339,-1.35554 -22.04874,-3.79128 -2.52046,1.84269 -6.62945,4.36315 -11.50093,6.48118 -5.08329,2.20276 -11.20441,4.08781 -17.28317,4.08781 -1.37672,0 -2.60518,-0.82603 -3.13469,-2.09685 -0.52951,-1.27083 -0.23298,-2.71108 0.72013,-3.68539 0,0 0,0 0,0 0,0 0,0 0,0 0,0 0,0 0,0 0,0 0,0 0,0 l 0.0635,-0.0636 c 0.0635,-0.0636 0.14826,-0.14826 0.27534,-0.29652 0.23299,-0.25417 0.59305,-0.6566 1.03784,-1.20728 0.8684,-1.05902 2.03332,-2.62636 3.21942,-4.57496 2.11803,-3.51594 4.13017,-8.13325 4.53259,-13.32245 -6.3541,-7.20129 -10.10303,-16.03349 -10.10303,-25.58583 0,-24.33623 24.27269,-44.05514 54.2217,-44.05514 29.94902,0 54.22171,19.71891 54.22171,44.05514 z"
       id="path3731"
       style="fill:#13446e;fill-opacity:1;stroke-width:0.211803"
       inkscape:export-filename="logo.png"
       inkscape:export-xdpi="9.3683987"
       inkscape:export-ydpi="9.3683987" /><text
       xml:space="preserve"
       style="font-style:normal;font-variant:normal;font-weight:bold;font-stretch:condensed;font-size:84.0635px;font-family:'Myriad Pro';-inkscape-font-specification:'Myriad Pro, Bold Condensed';font-variant-ligatures:normal;font-variant-caps:normal;font-variant-numeric:normal;font-variant-east-asian:normal;fill:#236094;fill-opacity:1;stroke-width:2.74035;stroke-linejoin:bevel"
       x="313.22571"
       y="90.603981"
       id="text2987-2"><tspan
         sodipodi:role="line"
         id="tspan2985-7"
         style="font-style:normal;font-variant:normal;font-weight:bold;font-stretch:condensed;font-size:84.0635px;font-family:'Myriad Pro';-inkscape-font-specification:'Myriad Pro, Bold Condensed';font-variant-ligatures:normal;font-variant-caps:normal;font-variant-numeric:normal;font-variant-east-asian:normal;fill:#ffffff;stroke-width:2.74033"
         x="313.22571"
         y="90.603981">?</tspan></text><g
       id="freepik--background-simple--inject-378"
       inkscape:export-filename="..\..\..\SFHelpDesk\nao-encontrada.png"
       inkscape:export-xdpi="96"
       inkscape:export-ydpi="96"
       transform="matrix(0.26458333,0,0,0.26458333,449.79419,81.344723)"><path
         d="m 429.84,253.51 c -3.39,-27 -11.87,-53.07 -22,-71.76 -24.47,-44.91 -92.64,-74.95 -144,-67.18 -43.81,6.62 -64.86,46.59 -104.36,60.46 -36.34,12.76 -69.06,22.61 -86.19,56.28 -36.29,71.12 52.42,148.87 128.45,142.81 24,-1.92 45.44,-11.15 70.07,-6.82 50,8.79 66.6,18.24 110.76,0.66 43.51,-17.33 53.2,-67.22 47.27,-114.45 z"
         style="fill:#92e3a9"
         id="path25" /><path
         d="m 429.84,253.51 c -3.39,-27 -11.87,-53.07 -22,-71.76 -24.47,-44.91 -92.64,-74.95 -144,-67.18 -43.81,6.62 -64.86,46.59 -104.36,60.46 -36.34,12.76 -69.06,22.61 -86.19,56.28 -36.29,71.12 52.42,148.87 128.45,142.81 24,-1.92 45.44,-11.15 70.07,-6.82 50,8.79 66.6,18.24 110.76,0.66 43.51,-17.33 53.2,-67.22 47.27,-114.45 z"
         style="opacity:0.8;fill:#ffffff"
         id="path27" /></g><g
       id="freepik--Device--inject-378"
       transform="matrix(0.26458333,0,0,0.26458333,449.79419,81.344723)"><polyline
         points="254.91 389.43 212.26 293.93 315.61 293.93 443.06 378"
         style="fill:#ffffff;stroke:#263238;stroke-width:0.75px;stroke-linecap:round;stroke-linejoin:round"
         id="polyline30" /><polygon
         points="212.26,293.93 257.63,393.88 244.33,385.67 212.26,300.3 "
         style="fill:#263238;stroke:#263238;stroke-width:0.75px;stroke-linecap:round;stroke-linejoin:round"
         id="polygon32" /><polygon
         points="261.95,361.84 231.63,304.24 271.35,297.88 315.31,349.41 "
         style="fill:#ffffff;stroke:#263238;stroke-width:0.75px;stroke-linecap:round;stroke-linejoin:round"
         id="polygon34" /><polygon
         points="314.4,352.75 315.31,349.41 261.95,361.84 261.95,363.36 "
         style="fill:#263238;stroke:#263238;stroke-width:0.75px;stroke-linecap:round;stroke-linejoin:round"
         id="polygon36" /><polygon
         points="277.66,318.19 275.28,314.95 269.69,316.42 271.94,319.74 "
         style="fill:#263238"
         id="polygon38" /><polygon
         points="282.12,334.8 284.66,338.56 291.34,336.73 288.62,333.05 "
         style="fill:#263238"
         id="polygon40" /><polygon
         points="272.07,310.61 270.38,308.31 265.02,309.5 266.69,311.98 "
         style="fill:#263238"
         id="polygon42" /><polygon
         points="284.75,327.8 281.35,323.19 275.38,324.83 278.46,329.39 "
         style="fill:#263238"
         id="polygon44" /><polygon
         points="288.98,332 294.47,330.52 291.67,326.97 286.28,328.34 "
         style="fill:#263238"
         id="polygon46" /><polygon
         points="288.04,332.26 285.33,328.58 279.01,330.19 281.58,334.01 "
         style="fill:#263238"
         id="polygon48" /><polygon
         points="265.75,312.21 264.06,309.71 258.93,310.85 260.59,313.53 "
         style="fill:#263238"
         id="polygon50" /><polygon
         points="280.77,322.4 278.24,318.97 272.47,320.53 274.85,324.04 "
         style="fill:#263238"
         id="polygon52" /><polygon
         points="274.69,314.16 272.65,311.39 267.23,312.77 269.15,315.62 "
         style="fill:#263238"
         id="polygon54" /><polygon
         points="247.78,317.73 249.49,320.81 255.59,319.2 253.91,316.17 "
         style="fill:#263238"
         id="polygon56" /><polygon
         points="249.04,321.88 244.9,322.97 246.78,326.53 250.99,325.4 "
         style="fill:#263238"
         id="polygon58" /><polygon
         points="263.51,308.9 262.14,306.88 257.11,307.91 258.42,310.03 "
         style="fill:#263238"
         id="polygon60" /><polygon
         points="245.6,313.79 247.32,316.9 253.45,315.34 251.83,312.42 "
         style="fill:#263238"
         id="polygon62" /><polygon
         points="257.48,310.24 256.15,308.1 251.06,309.14 252.3,311.38 "
         style="fill:#263238"
         id="polygon64" /><polygon
         points="244.67,314 240.62,314.89 242.35,318.17 246.41,317.13 "
         style="fill:#263238"
         id="polygon66" /><polygon
         points="251.37,311.59 250.12,309.33 243.84,310.62 245.14,312.96 "
         style="fill:#263238"
         id="polygon68" /><polygon
         points="271.01,319.99 268.76,316.67 263.41,318.08 265.51,321.47 "
         style="fill:#263238"
         id="polygon70" /><polygon
         points="268.73,326.67 271.51,331.16 277.53,329.63 274.46,325.09 "
         style="fill:#263238"
         id="polygon72" /><polygon
         points="259.66,313.76 257.99,311.06 252.76,312.21 254.36,315.11 "
         style="fill:#263238"
         id="polygon74" /><polygon
         points="251.88,336.16 256.33,335.03 253.96,330.74 249.64,331.93 "
         style="fill:#263238"
         id="polygon76" /><polygon
         points="273.92,324.3 271.55,320.78 266.01,322.28 268.23,325.86 "
         style="fill:#263238"
         id="polygon78" /><polygon
         points="254.82,315.93 256.5,318.97 261.99,317.52 260.16,314.57 "
         style="fill:#263238"
         id="polygon80" /><polygon
         points="268.09,354.36 274.22,352.85 272.02,348.87 265.91,350.43 "
         style="fill:#263238"
         id="polygon82" /><polygon
         points="264.98,300.98 259.83,301.83 262.56,305.87 267.79,304.8 "
         style="fill:#263238"
         id="polygon84" /><polygon
         points="240.72,304.99 243.38,309.79 249.66,308.5 247.13,303.93 "
         style="fill:#263238"
         id="polygon86" /><polygon
         points="249.95,321.63 251.9,325.15 257.98,323.51 256.05,320.02 "
         style="fill:#263238"
         id="polygon88" /><polygon
         points="264.73,333.83 267.01,337.95 273.55,336.18 271.09,332.21 "
         style="fill:#263238"
         id="polygon90" /><polygon
         points="261.82,328.57 264.27,333 270.59,331.4 267.81,326.92 "
         style="fill:#263238"
         id="polygon92" /><polygon
         points="272.01,331.97 274.47,335.93 280.65,334.26 278.07,330.43 "
         style="fill:#263238"
         id="polygon94" /><polygon
         points="256.95,319.79 258.88,323.26 264.59,321.72 262.49,318.32 "
         style="fill:#263238"
         id="polygon96" /><polygon
         points="268.22,315.87 266.29,313.01 261.09,314.34 262.91,317.27 "
         style="fill:#263238"
         id="polygon98" /><polygon
         points="259.33,324.08 261.37,327.76 267.31,326.12 265.09,322.53 "
         style="fill:#263238"
         id="polygon100" /><polygon
         points="274.97,336.74 277.34,340.57 283.74,338.82 281.19,335.06 "
         style="fill:#263238"
         id="polygon102" /><polygon
         points="270.08,343.5 272.48,347.81 279.63,345.99 276.92,341.62 "
         style="fill:#263238"
         id="polygon104" /><polygon
         points="252.32,336.99 254.6,341.31 259.13,340.08 256.79,335.85 "
         style="fill:#263238"
         id="polygon106" /><polygon
         points="249.21,331.11 253.5,329.93 251.45,326.22 247.22,327.36 "
         style="fill:#263238"
         id="polygon108" /><polygon
         points="263.12,345.4 265.45,349.6 271.56,348.05 269.18,343.74 "
         style="fill:#263238"
         id="polygon110" /><polygon
         points="252.35,325.97 254.41,329.68 260.46,328 258.43,324.33 "
         style="fill:#263238"
         id="polygon112" /><polygon
         points="269.79,307.51 268.38,305.6 263.11,306.68 264.47,308.69 "
         style="fill:#263238"
         id="polygon114" /><polygon
         points="242.91,310.81 238.89,311.63 240.18,314.06 244.21,313.17 "
         style="fill:#263238"
         id="polygon116" /><polygon
         points="258.84,301.99 253.94,302.8 256.59,307.08 261.59,306.06 "
         style="fill:#263238"
         id="polygon118" /><polygon
         points="252.97,302.96 248.08,303.77 250.6,308.31 255.65,307.28 "
         style="fill:#263238"
         id="polygon120" /><polygon
         points="242.79,319 244.46,322.14 248.59,321.06 246.87,317.96 "
         style="fill:#263238"
         id="polygon122" /><polygon
         points="270.45,300.08 265.98,300.81 268.77,304.6 273.29,303.67 "
         style="fill:#263238"
         id="polygon124" /><polygon
         points="235.8,305.8 238.45,310.79 242.44,309.98 239.76,305.14 "
         style="fill:#263238"
         id="polygon126" /><polygon
         points="262.28,355.8 267.18,354.59 265,350.66 260.2,351.88 "
         style="fill:#263238"
         id="polygon128" /><polygon
         points="283.52,350.55 290.5,348.82 287.81,344.84 281.05,346.56 "
         style="fill:#263238"
         id="polygon130" /><polygon
         points="275.14,352.62 282.59,350.78 280.13,346.8 272.93,348.63 "
         style="fill:#263238"
         id="polygon132" /><polygon
         points="291.44,348.59 298.75,346.78 295.81,342.8 288.75,344.6 "
         style="fill:#263238"
         id="polygon134" /><polygon
         points="299.71,346.55 305.91,345.01 302.76,341.03 296.76,342.56 "
         style="fill:#263238"
         id="polygon136" /><polygon
         points="259.76,351.06 264.54,349.84 262.22,345.65 257.57,346.92 "
         style="fill:#263238"
         id="polygon138" /><polygon
         points="267.47,338.77 269.63,342.68 276.42,340.82 274.05,336.99 "
         style="fill:#263238"
         id="polygon140" /><polygon
         points="277.84,341.37 280.55,345.75 287.27,344.04 284.27,339.61 "
         style="fill:#263238"
         id="polygon142" /><polygon
         points="260.49,340.66 262.67,344.58 268.73,342.92 266.56,339.01 "
         style="fill:#263238"
         id="polygon144" /><polygon
         points="259.59,340.9 255.04,342.13 257.14,346.1 261.77,344.83 "
         style="fill:#263238"
         id="polygon146" /><polygon
         points="254.86,330.49 257.24,334.79 263.36,333.24 260.92,328.82 "
         style="fill:#263238"
         id="polygon148" /><polygon
         points="285.2,339.36 288.21,343.8 295.23,342.01 291.92,337.52 "
         style="fill:#263238"
         id="polygon150" /><polygon
         points="257.7,335.62 260.04,339.84 266.11,338.19 263.82,334.06 "
         style="fill:#263238"
         id="polygon152" /><polygon
         points="291.05,326.19 287.37,321.53 282.29,322.93 285.7,327.55 "
         style="fill:#263238"
         id="polygon154" /><polygon
         points="278.25,309.97 273.61,311.15 275.64,313.91 280.38,312.66 "
         style="fill:#263238"
         id="polygon156" /><polygon
         points="277.64,309.19 275.97,307.08 271.36,308.1 273.02,310.36 "
         style="fill:#263238"
         id="polygon158" /><polygon
         points="292.86,337.26 296.18,341.77 302.14,340.25 298.56,335.7 "
         style="fill:#263238"
         id="polygon160" /><polygon
         points="283.49,316.61 280.99,313.44 276.22,314.7 278.61,317.93 "
         style="fill:#263238"
         id="polygon162" /><polygon
         points="297.95,334.93 295.08,331.3 289.56,332.79 292.28,336.48 "
         style="fill:#263238"
         id="polygon164" /><polygon
         points="273.92,304.47 269.37,305.4 270.76,307.3 275.35,306.29 "
         style="fill:#263238"
         id="polygon166" /><polygon
         points="284.11,317.39 279.19,318.72 281.71,322.15 286.76,320.75 "
         style="fill:#263238"
         id="polygon168" /><path
         d="m 322.28,303.64 v 8.18 a 16,16 0 0 1 -2.73,2.12 c -1.51,0.91 -13.94,3 -13.94,3 l 15.76,17.29 c 0,0 14.45,-1.58 18.5,-2.73 4.24,-1.22 3.33,-16.68 3.33,-16.68 z"
         style="fill:#ffffff;stroke:#263238;stroke-width:0.75px;stroke-linecap:round;stroke-linejoin:round"
         id="path170" /><path
         d="m 322.28,303.64 v 8.18 c 0,0 -0.22,0.22 -0.58,0.54 l 18.43,19.06 c 3.94,-1.77 3.07,-16.57 3.07,-16.57 z"
         style="fill:#263238;stroke:#263238;stroke-width:0.75px;stroke-linecap:round;stroke-linejoin:round"
         id="path172" /><polygon
         points="360.48,337.89 360.48,203.89 294.39,199.04 294.39,285.75 "
         style="fill:#ffffff;stroke:#263238;stroke-width:0.75px;stroke-linecap:round;stroke-linejoin:round"
         id="polygon174" /><polygon
         points="354.42,310.91 354.42,208.44 298.94,203.59 298.94,276.65 "
         style="fill:#92e3a9;stroke:#263238;stroke-width:0.75px;stroke-linecap:round;stroke-linejoin:round"
         id="polygon176" /><rect
         x="360.48001"
         y="203.89"
         width="6.6700001"
         height="134.03"
         style="fill:#263238;stroke:#263238;stroke-width:0.75px;stroke-linecap:round;stroke-linejoin:round"
         id="rect178" /><polygon
         points="302.58,208.14 302.88,273.32 349.26,299.69 349.26,218.98 317.43,214.16 315.31,209.65 "
         style="fill:#ffffff;stroke:#263238;stroke-width:0.75px;stroke-linecap:round;stroke-linejoin:round"
         id="polygon180" /><polygon
         points="346.54,293.33 346.54,223.3 305.61,216.02 305.61,271.5 "
         style="fill:#92e3a9;stroke:#263238;stroke-width:0.75px;stroke-linecap:round;stroke-linejoin:round"
         id="polygon182" /><ellipse
         cx="324.72"
         cy="255.73"
         rx="11.03"
         ry="15.2"
         transform="rotate(-18.56,324.81319,255.77719)"
         style="fill:#263238"
         id="ellipse184" /><path
         d="m 325.92,256.67 3.89,-4.31 a 2.21,2.21 0 0 0 -0.07,-2.59 c -0.58,-0.83 -1.49,-1 -2,-0.41 l -3.74,4.15 -3.75,-6 c -0.54,-0.87 -1.45,-1.14 -2,-0.6 a 2.11,2.11 0 0 0 -0.08,2.55 l 3.89,6.25 -3.96,4.29 a 2.2,2.2 0 0 0 0.08,2.59 1.68,1.68 0 0 0 1,0.73 1,1 0 0 0 1,-0.32 l 3.75,-4.15 3.74,6 a 1.79,1.79 0 0 0 1.06,0.84 1,1 0 0 0 1,-0.24 2.12,2.12 0 0 0 0.07,-2.55 z"
         style="fill:#ffffff"
         id="path186" /><line
         x1="312.88"
         y1="234.82001"
         x2="335.79999"
         y2="241.55"
         style="fill:none;stroke:#263238;stroke-width:0.75px;stroke-linecap:round;stroke-linejoin:round"
         id="line188" /><line
         x1="311.97"
         y1="228.45"
         x2="341.67999"
         y2="236.74001"
         style="fill:none;stroke:#263238;stroke-width:0.75px;stroke-linecap:round;stroke-linejoin:round"
         id="line190" /><path
         d="m 332.45,371.31 c 0,0 -14.49,1.34 -19.85,5.63 -5.36,4.29 -1.34,6.44 3.75,7.78 5.09,1.34 27.9,-0.81 30.85,-3.76 2.95,-2.95 0,-10.19 -14.75,-9.65 z"
         style="fill:#ffffff;stroke:#263238;stroke-width:0.75px;stroke-linecap:round;stroke-linejoin:round"
         id="path192" /><path
         d="m 347.2,381 a 3.46,3.46 0 0 0 1,-2.12 c -6.49,-0.32 -15,1.56 -22.73,4 a 81.06,81.06 0 0 1 -7.94,2.09 c 6.74,0.81 26.91,-1.25 29.67,-3.97 z"
         style="fill:#263238;stroke:#263238;stroke-width:0.75px;stroke-linecap:round;stroke-linejoin:round"
         id="path194" /><line
         x1="281.07999"
         y1="212.16"
         x2="291.67001"
         y2="217.67"
         style="fill:none;stroke:#263238;stroke-linecap:round;stroke-linejoin:round"
         id="line196" /><line
         x1="275"
         y1="209"
         x2="278.14999"
         y2="210.64"
         style="fill:none;stroke:#263238;stroke-linecap:round;stroke-linejoin:round"
         id="line198" /><line
         x1="283.41"
         y1="239.92"
         x2="287"
         y2="240.33"
         style="fill:none;stroke:#263238;stroke-linecap:round;stroke-linejoin:round"
         id="line200" /><line
         x1="269.67001"
         y1="238.33"
         x2="279.35001"
         y2="239.45"
         style="fill:none;stroke:#263238;stroke-linecap:round;stroke-linejoin:round"
         id="line202" /><line
         x1="285.67001"
         y1="265.67001"
         x2="273.67001"
         y2="269"
         style="fill:none;stroke:#263238;stroke-linecap:round;stroke-linejoin:round"
         id="line204" /></g><g
       id="freepik--Clock--inject-378"
       transform="matrix(0.26458333,0,0,0.26458333,449.79419,81.344723)"><path
         d="m 270.18,119 a 28.7,28.7 0 1 0 28.7,28.7 28.7,28.7 0 0 0 -28.7,-28.7 z m 0,51.76 a 23.06,23.06 0 1 1 23.07,-23.06 23.05,23.05 0 0 1 -23.07,23.09 z"
         style="fill:#263238"
         id="path207" /><path
         d="m 272.23,147.73 a 2.05,2.05 0 1 1 -2.05,-2 2.05,2.05 0 0 1 2.05,2 z"
         style="fill:#263238"
         id="path209" /><polyline
         points="263.31 158.14 270.18 147.73 281.79 157.34"
         style="fill:none;stroke:#263238;stroke-linecap:round;stroke-linejoin:round"
         id="polyline211" /></g><g
       id="freepik--file-cabinet--inject-378"
       transform="matrix(0.26458333,0,0,0.26458333,449.79419,81.344723)"><polyline
         points="117.88 169.73 114.43 160.3 116.27 162.37 116.27 159.15 120.18 165.13 116.73 143.74 121.33 155.47 121.79 145.12 122.48 148.57 123.4 136.84 125.01 154.78 127.31 148.57 126.85 156.62 133.06 138.22 130.07 161.22 134.44 158 131.91 162.14 135.13 159.84 131.46 170.42 118.11 170.65"
         style="fill:#92e3a9"
         id="polyline214" /><polygon
         points="114.38,168.04 136.51,168.04 132.64,192.96 118.26,192.96 "
         style="fill:#263238;stroke:#263238;stroke-linecap:round;stroke-linejoin:round"
         id="polygon216" /><rect
         x="99.419998"
         y="192.78999"
         width="72.589996"
         height="193.11"
         style="fill:#ffffff;stroke:#263238;stroke-linecap:round;stroke-linejoin:round"
         id="rect218" /><rect
         x="103.64"
         y="199.13"
         width="63.43"
         height="46.509998"
         style="fill:none;stroke:#263238;stroke-linecap:round;stroke-linejoin:round"
         id="rect220" /><rect
         x="122.67"
         y="218.16"
         width="25.370001"
         height="8.46"
         style="fill:#263238"
         id="rect222" /><rect
         x="103.64"
         y="253.39999"
         width="63.43"
         height="46.509998"
         style="fill:none;stroke:#263238;stroke-linecap:round;stroke-linejoin:round"
         id="rect224" /><rect
         x="122.67"
         y="272.42999"
         width="25.370001"
         height="8.46"
         style="fill:#263238"
         id="rect226" /><rect
         x="103.64"
         y="307.66"
         width="63.43"
         height="46.509998"
         style="fill:none;stroke:#263238;stroke-linecap:round;stroke-linejoin:round"
         id="rect228" /><rect
         x="122.67"
         y="326.69"
         width="25.370001"
         height="8.46"
         style="fill:#263238"
         id="rect230" /></g><g
       id="freepik--Character--inject-378"
       transform="matrix(0.26458333,0,0,0.26458333,449.79419,81.344723)"><g
         clip-path="url(#freepik--clip-path--inject-378)"
         id="g329"><path
           d="m 179.79,374.88 c 0,0 36.38,-16.07 55.94,-17.28 L 250,389.13 H 142.22 Z"
           style="fill:#263238;stroke:#263238;stroke-width:0.75px;stroke-linecap:round;stroke-linejoin:round"
           id="path233" /><path
           d="m 224.07,184.9 c 0,0 25.61,30.42 31,36 5.39,5.58 5.59,9.63 3.85,12.13 -1.74,2.5 -14.82,7.13 -28.3,15.79 -13.48,8.66 -51.8,31 -52.18,31.78 -0.38,0.78 -4.05,-27 -4.05,-27 l 64.12,-26.38 -0.19,-1.93 -20.8,-38.51 z"
           style="fill:#ffffff"
           id="path235" /><g
           clip-path="url(#freepik--clip-path-2--inject-378)"
           id="g241"><path
             d="M 248.72,229.8 219,186.4 l -1.43,0.42 20.8,38.51 0.19,1.93 -64.12,26.38 c 0,0 0.07,0.48 0.17,1.29 l 4.18,9.59 z"
             style="fill:#92e3a9"
             id="path237" /><path
             d="M 248.72,229.8 219,186.4 l -1.43,0.42 20.8,38.51 0.19,1.93 -64.12,26.38 c 0,0 0.07,0.48 0.17,1.29 l 4.18,9.59 z"
             style="opacity:0.5;fill:#ffffff"
             id="path239" /></g><path
           d="m 224.07,184.9 c 0,0 25.61,30.42 31,36 5.39,5.58 5.59,9.63 3.85,12.13 -1.74,2.5 -14.82,7.13 -28.3,15.79 -13.48,8.66 -51.8,31 -52.18,31.78 -0.38,0.78 -4.05,-27 -4.05,-27 l 64.12,-26.38 -0.19,-1.93 -20.8,-38.51 z"
           style="fill:none;stroke:#263238;stroke-width:0.75px;stroke-linecap:round;stroke-linejoin:round"
           id="path243" /><path
           d="m 203.66,171.61 c 0,0 -3.08,-2.7 -4.62,0 -1.54,2.7 -1.73,7.12 -0.77,7.51 0.96,0.39 4.81,-0.19 5.39,-1.35 0.58,-1.16 0,-6.16 0,-6.16 z"
           style="fill:#ffffff;stroke:#263238;stroke-width:0.75px;stroke-linecap:round;stroke-linejoin:round"
           id="path245" /><path
           d="m 209.05,170.26 c 0,0 -3.27,-3.46 -5.39,-2.12 -2.12,1.34 -1.54,8.67 -0.77,9.25 0.77,0.58 5.39,-1 6,-1.93 0.61,-0.93 0.16,-5.2 0.16,-5.2 z"
           style="fill:#ffffff;stroke:#263238;stroke-width:0.75px;stroke-linecap:round;stroke-linejoin:round"
           id="path247" /><path
           d="m 216.37,170.45 c 0,0 -2.89,-4 -5.58,-4 -2.69,0 -4.63,9.63 -3.66,10.4 0.97,0.77 7.31,-0.19 7.7,-0.77 a 52.44,52.44 0 0 0 1.54,-5.63 z"
           style="fill:#ffffff;stroke:#263238;stroke-width:0.75px;stroke-linecap:round;stroke-linejoin:round"
           id="path249" /><path
           d="m 222,177 c 0,-1.15 -0.57,-11.17 -4,-10.59 -3.43,0.58 -7.12,8.67 -6.93,10 0.19,1.33 10.93,0.59 10.93,0.59 z"
           style="fill:#ffffff;stroke:#263238;stroke-width:0.75px;stroke-linecap:round;stroke-linejoin:round"
           id="path251" /><path
           d="m 238.51,227.26 c 0,0 9.82,3.66 13.48,3.46"
           style="fill:#ffffff;stroke:#263238;stroke-width:0.75px;stroke-linecap:round;stroke-linejoin:round"
           id="path253" /><path
           d="m 157.76,389.39 c 10.46,-1.76 23.86,-8.95 27.85,-18 -3,-15.69 -6.79,-37.79 -6.79,-51.31 0,-22.72 6,-35.62 3.27,-51 -2.73,-15.38 -8.47,-25.41 -14.63,-29.46 0,0 -9.43,2.5 -19.06,11.55 -9.63,9.05 -18.1,24.61 -21.4,39.44 -3.3,14.83 -7.7,60.46 -7.7,72.4 0,11.94 -0.86,26.76 -0.86,26.76 11.53,0 23.06,0 34.59,0 a 26.46,26.46 0 0 0 4.73,-0.38 z"
           style="fill:#ffffff"
           id="path255" /><g
           clip-path="url(#freepik--clip-path-3--inject-378)"
           id="g261"><path
             d="m 185.61,371.38 c -5.86,5 -32.25,14.71 -36.1,15.57 -3.85,0.86 -1.71,-7.28 4.28,-15.41 5.99,-8.13 -7.28,3 -9.42,3.85 -2.14,0.85 0.86,-15.84 0.86,-24 0,-8.16 7.71,-77.48 7.71,-77.48 l 14.55,-26.55 5,-3 a 21.48,21.48 0 0 0 -5,-4.79 c 0,0 -9.43,2.5 -19.06,11.55 -9.63,9.05 -18.13,24.66 -21.43,39.49 -3.3,14.83 -7.7,60.46 -7.7,72.4 0,11.94 -0.86,26.76 -0.86,26.76 11.53,0 23.06,0 34.59,0 a 26.46,26.46 0 0 0 4.71,-0.42 c 10.48,-1.72 23.88,-8.91 27.87,-17.97 z"
             style="fill:#92e3a9"
             id="path257" /><path
             d="m 185.61,371.38 c -5.86,5 -32.25,14.71 -36.1,15.57 -3.85,0.86 -1.71,-7.28 4.28,-15.41 5.99,-8.13 -7.28,3 -9.42,3.85 -2.14,0.85 0.86,-15.84 0.86,-24 0,-8.16 7.71,-77.48 7.71,-77.48 l 14.55,-26.55 5,-3 a 21.48,21.48 0 0 0 -5,-4.79 c 0,0 -9.43,2.5 -19.06,11.55 -9.63,9.05 -18.13,24.66 -21.43,39.49 -3.3,14.83 -7.7,60.46 -7.7,72.4 0,11.94 -0.86,26.76 -0.86,26.76 11.53,0 23.06,0 34.59,0 a 26.46,26.46 0 0 0 4.71,-0.42 c 10.48,-1.72 23.88,-8.91 27.87,-17.97 z"
             style="opacity:0.5;fill:#ffffff"
             id="path259" /></g><path
           d="m 157.76,389.39 c 10.46,-1.76 23.86,-8.95 27.85,-18 -3,-15.69 -6.79,-37.79 -6.79,-51.31 0,-22.72 6,-35.62 3.27,-51 -2.73,-15.38 -8.47,-25.41 -14.63,-29.46 0,0 -9.43,2.5 -19.06,11.55 -9.63,9.05 -18.1,24.61 -21.4,39.44 -3.3,14.83 -7.7,60.46 -7.7,72.4 0,11.94 -0.86,26.76 -0.86,26.76 11.53,0 23.06,0 34.59,0 a 26.46,26.46 0 0 0 4.73,-0.38 z"
           style="fill:none;stroke:#263238;stroke-width:0.75px;stroke-linecap:round;stroke-linejoin:round"
           id="path263" /><path
           d="m 166.9,243.16 16.54,30.12 0.89,16.52 c 0,0 4.61,-11.78 2.56,-19.47 -2.05,-7.69 -19.99,-27.17 -19.99,-27.17 z"
           style="fill:#263238;stroke:#263238;stroke-width:0.75px;stroke-linecap:round;stroke-linejoin:round"
           id="path265" /><polygon
           points="179.71,359.52 184.84,373.87 188.43,345.16 185.35,287.75 184.32,289.81 "
           style="fill:#263238;stroke:#263238;stroke-width:0.75px;stroke-linecap:round;stroke-linejoin:round"
           id="polygon267" /><path
           d="m 179.78,214.93 c 0,0 0.58,7.51 1.16,11.17 0.58,3.66 -8.47,13.9 -8.47,13.9 l 13.09,19.83 14.83,-11.55 c 0,0 21,-1.54 22.91,-3.28 1.91,-1.74 1.93,-20.79 1.93,-20.79 l 5,-2.89 c 0,0 -4.62,-20 -5.77,-24.46 l -1.16,-4.42 c 0,0 6.74,-2.32 5.2,-9 -1.54,-6.68 -11.36,-10 -21.18,-8.48 -9.82,1.52 -12.32,5.2 -12.32,5.2 0,0 -13.87,-0.19 -21.76,6.36 -7.89,6.55 -3.08,16.94 -0.58,20.6 a 57.23,57.23 0 0 0 7.12,7.81 z"
           style="fill:#ffffff"
           id="path269" /><g
           clip-path="url(#freepik--clip-path-4--inject-378)"
           id="g281"><path
             d="m 203,241.83 c -3.85,-4.71 0,-22.69 3,-31.68 3,-8.99 -4.28,-12.84 -4.28,-12.84 l 21.86,-3.77 -0.3,-1.13 a 9.74,9.74 0 0 0 3.83,-2.71 l 1.18,-6.95 c -2,-6.32 -11.47,-9.36 -21,-7.87 -9.82,1.54 -12.32,5.2 -12.32,5.2 0,0 -13.87,-0.19 -21.76,6.36 -7.89,6.55 -3.08,16.94 -0.58,20.6 a 57.23,57.23 0 0 0 7.12,7.89 c 0,0 0.58,7.51 1.16,11.17 0.58,3.66 -8.44,13.9 -8.44,13.9 l 13.09,19.83 14.83,-11.55 c 0,0 16,-1.18 21.36,-2.63 L 223.3,245 c 0,0 -16.43,1.54 -20.3,-3.17 z"
             style="fill:#92e3a9"
             id="path271" /><path
             d="m 203,241.83 c -3.85,-4.71 0,-22.69 3,-31.68 3,-8.99 -4.28,-12.84 -4.28,-12.84 l 21.86,-3.77 -0.3,-1.13 a 9.74,9.74 0 0 0 3.83,-2.71 l 1.18,-6.95 c -2,-6.32 -11.47,-9.36 -21,-7.87 -9.82,1.54 -12.32,5.2 -12.32,5.2 0,0 -13.87,-0.19 -21.76,6.36 -7.89,6.55 -3.08,16.94 -0.58,20.6 a 57.23,57.23 0 0 0 7.12,7.89 c 0,0 0.58,7.51 1.16,11.17 0.58,3.66 -8.44,13.9 -8.44,13.9 l 13.09,19.83 14.83,-11.55 c 0,0 16,-1.18 21.36,-2.63 L 223.3,245 c 0,0 -16.43,1.54 -20.3,-3.17 z"
             style="opacity:0.5;fill:#ffffff"
             id="path273" /><path
             d="m 214.25,206.08 c 0,0 0,-0.3 0,-0.77 0,-1.49 0.25,-4.71 2.74,-5.59 3.27,-1.15 6,1.93 6,1.93 l 0.19,3.08 a 4.25,4.25 0 0 0 -4,-1.54 9,9 0 0 0 -4.93,2.89 z"
             style="fill:#263238"
             id="path275" /><path
             d="m 219.84,212.24 c 0,1.59 -0.44,2.89 -1,2.89 -0.56,0 -1,-1.3 -1,-2.89 0,-1.59 0.43,-2.89 1,-2.89 0.57,0 1,1.29 1,2.89 z"
             style="fill:#263238"
             id="path277" /><path
             d="m 213.77,232.41 c -1.07,1.11 -2.5,1.47 -3.19,0.81 -0.69,-0.66 -0.38,-2.11 0.69,-3.22 1.07,-1.11 2.49,-1.47 3.18,-0.81 0.69,0.66 0.39,2.11 -0.68,3.22 z"
             style="fill:#263238"
             id="path279" /></g><path
           d="m 179.78,214.93 c 0,0 0.58,7.51 1.16,11.17 0.58,3.66 -8.47,13.9 -8.47,13.9 l 13.09,19.83 14.83,-11.55 c 0,0 21,-1.54 22.91,-3.28 1.91,-1.74 1.93,-20.79 1.93,-20.79 l 5,-2.89 c 0,0 -4.62,-20 -5.77,-24.46 l -1.16,-4.42 c 0,0 6.74,-2.32 5.2,-9 -1.54,-6.68 -11.36,-10 -21.18,-8.48 -9.82,1.52 -12.32,5.2 -12.32,5.2 0,0 -13.87,-0.19 -21.76,6.36 -7.89,6.55 -3.08,16.94 -0.58,20.6 a 57.23,57.23 0 0 0 7.12,7.81 z"
           style="fill:none;stroke:#263238;stroke-width:0.75px;stroke-linecap:round;stroke-linejoin:round"
           id="path283" /><path
           d="m 198.27,196.06 c 3.47,-2.31 25,-3.65 25,-3.65 0,0 6.74,-2.32 5.2,-9 -1.54,-6.68 -11.36,-10 -21.18,-8.48 -9.82,1.52 -12.32,5.2 -12.32,5.2 0,0 -13.87,-0.19 -21.76,6.36 -7.89,6.55 -3.08,16.94 -0.58,20.6 a 57.23,57.23 0 0 0 7.12,7.89 c 0,0 0.32,4.12 0.72,7.75 l 6,1.69 6.55,-3.47 6.55,-1.54 c 0,0 -4.82,-3.66 -2.12,-7.12 2.7,-3.46 7.7,-4.62 7.89,-7.32 0.19,-2.7 -10.54,-6.6 -7.07,-8.91 z"
           style="fill:#263238;stroke:#263238;stroke-width:0.75px;stroke-linecap:round;stroke-linejoin:round"
           id="path285" /><path
           d="m 219.29,184.87 c 0,0 -2.26,-4.14 1.88,-3.39 4.14,0.75 4.14,7.91 0.75,9.41 -3.39,1.5 -21.83,-1.88 -32,1.13 -10.17,3.01 -17.31,11.29 -17.31,11.29"
           style="fill:none;stroke:#ffffff;stroke-linecap:round;stroke-miterlimit:10"
           id="path287" /><path
           d="m 178.26,209.71 c 0,0 7.91,-6.77 14.3,-7.9 6.39,-1.13 9.79,-1.13 2.64,3 -7.15,4.13 -2.26,3.38 2.26,1.88"
           style="fill:none;stroke:#ffffff;stroke-linecap:round;stroke-miterlimit:10"
           id="path289" /><path
           d="m 194.8,224.56 c 0,0 -1.15,-12.13 -7.12,-12.51 -5.97,-0.38 -5.78,8.28 -4,14.25 1.78,5.97 6,7.89 9.43,4.81"
           style="fill:#92e3a9"
           id="path291" /><g
           clip-path="url(#freepik--clip-path-5--inject-378)"
           id="g295"><path
             d="m 194.8,224.56 c 0,0 -1.15,-12.13 -7.12,-12.51 -5.97,-0.38 -5.78,8.28 -4,14.25 1.78,5.97 6,7.89 9.43,4.81"
             style="opacity:0.5;fill:#ffffff;stroke:#263238;stroke-width:0.75px;stroke-linecap:round;stroke-linejoin:round"
             id="path293" /></g><path
           d="m 194.8,224.56 c 0,0 -1.15,-12.13 -7.12,-12.51 -5.97,-0.38 -5.78,8.28 -4,14.25 1.78,5.97 6,7.89 9.43,4.81"
           style="fill:none;stroke:#263238;stroke-width:0.75px;stroke-linecap:round;stroke-linejoin:round"
           id="path297" /><path
           d="m 173,232.65 19.26,29.27 -8.86,11.36 a 223.78,223.78 0 0 0 -13.28,-22.34 c -6.55,-9.24 -7.32,-10.78 -7.32,-10.78 z"
           style="fill:#ffffff"
           id="path299" /><g
           clip-path="url(#freepik--clip-path-6--inject-378)"
           id="g305"><path
             d="m 173,232.65 -10.2,7.51 c 0,0 0.57,1.13 4.77,7.16 l 10.78,-6.54 z"
             style="fill:#92e3a9"
             id="path301" /><path
             d="m 173,232.65 -10.2,7.51 c 0,0 0.57,1.13 4.77,7.16 l 10.78,-6.54 z"
             style="opacity:0.5;fill:#ffffff"
             id="path303" /></g><path
           d="m 173,232.65 19.26,29.27 -8.86,11.36 a 223.78,223.78 0 0 0 -13.28,-22.34 c -6.55,-9.24 -7.32,-10.78 -7.32,-10.78 z"
           style="fill:none;stroke:#263238;stroke-width:0.75px;stroke-linecap:round;stroke-linejoin:round"
           id="path307" /><path
           d="m 222.53,305.44 c 0,0 3.08,-6.36 3.66,-10.4 0.58,-4.04 0.77,-6.36 3.08,-8.28 2.31,-1.92 9.82,-9.63 11,-12.52 1.18,-2.89 1.92,-0.19 2.5,2.12 0.58,2.31 0.38,4.43 -1.54,5.78 a 21.23,21.23 0 0 0 -3.66,3.46 l 1.73,1.35 c 0,0 24.07,-9.05 26.58,-10 2.51,-0.95 4.81,-0.2 5,1.73 0.19,1.93 -0.57,2.12 -1.73,2.7 -1.16,0.58 -13.86,5 -15.6,5.77 l -1.73,0.77 1.35,1.35 c 0,0 6.93,-0.19 10.4,-0.38 3.47,-0.19 8.66,-0.77 9.43,0.38 a 2.4,2.4 0 0 1 -0.58,3.27 3.72,3.72 0 0 1 -3.08,1 c -1.73,0 -16.56,1.15 -16.56,1.15 l 0.39,2.12 c 0,0 15.79,2.5 16.36,3.27 0.57,0.77 0.58,1.16 0,2.31 -0.58,1.15 -1,1.16 -2.5,1.16 -1.5,0 -14,-1.93 -14,-1.93 0,0 6.16,3.47 6.93,4.05 0.77,0.58 3.46,1 2.69,2.31 -0.77,1.31 -1.15,1.73 -2.31,1.54 -1.16,-0.19 -9.43,-3.85 -9.43,-3.85 0,0 -8.28,1.15 -11,1.35 a 37.73,37.73 0 0 1 -6,-0.2 l -7.7,5 z"
           style="fill:#ffffff;stroke:#263238;stroke-width:0.75px;stroke-linecap:round;stroke-linejoin:round"
           id="path309" /><path
           d="m 167.85,296.77 c 0,0 -5.59,-23.3 -7.9,-28.5 -2.31,-5.2 -15.4,-10 -21.76,1.35 -6.36,11.35 -0.58,24.26 1.74,33.5 2.32,9.24 16.94,51 19.06,56.23 2.12,5.23 6,4 8.09,3.47 2.09,-0.53 60.65,-47.76 60.65,-47.76 L 223.11,304.67 177.67,328 Z"
           style="fill:#ffffff"
           id="path311" /><g
           clip-path="url(#freepik--clip-path-7--inject-378)"
           id="g317"><path
             d="m 166.21,348 a 139.72,139.72 0 0 1 5.13,-13.27 c 2.14,-4.28 -10.27,9.85 -12.84,2.14 -2.57,-7.71 -18.83,-46.23 -15.84,-59.07 a 24.35,24.35 0 0 1 9.78,-14.74 c -4.77,-1.13 -10.61,0.07 -14.25,6.57 -6.35,11.36 -0.58,24.26 1.74,33.5 2.32,9.24 16.94,51 19.06,56.23 2.12,5.23 6,4 8.09,3.47 1.54,-0.42 33,-25.55 50,-39.18 z"
             style="fill:#92e3a9"
             id="path313" /><path
             d="m 166.21,348 a 139.72,139.72 0 0 1 5.13,-13.27 c 2.14,-4.28 -10.27,9.85 -12.84,2.14 -2.57,-7.71 -18.83,-46.23 -15.84,-59.07 a 24.35,24.35 0 0 1 9.78,-14.74 c -4.77,-1.13 -10.61,0.07 -14.25,6.57 -6.35,11.36 -0.58,24.26 1.74,33.5 2.32,9.24 16.94,51 19.06,56.23 2.12,5.23 6,4 8.09,3.47 1.54,-0.42 33,-25.55 50,-39.18 z"
             style="opacity:0.5;fill:#ffffff"
             id="path315" /></g><path
           d="m 167.85,296.77 c 0,0 -5.59,-23.3 -7.9,-28.5 -2.31,-5.2 -15.4,-10 -21.76,1.35 -6.36,11.35 -0.58,24.26 1.74,33.5 2.32,9.24 16.94,51 19.06,56.23 2.12,5.23 6,4 8.09,3.47 2.09,-0.53 60.65,-47.76 60.65,-47.76 L 223.11,304.67 177.67,328 Z"
           style="fill:none;stroke:#263238;stroke-width:0.75px;stroke-linecap:round;stroke-linejoin:round"
           id="path319-1" /><line
           x1="216.37"
           y1="308.51999"
           x2="221.57001"
           y2="319.10999"
           style="fill:#ffffff;stroke:#263238;stroke-width:0.75px;stroke-linecap:round;stroke-linejoin:round"
           id="line321" /><path
           d="m 94.22,255.39 -26.6,18.45 c 0,0 13.11,13.86 11.76,50.22 -1,27.77 2.67,59.3 8,65.71 h 28.32 c 0,0 -9.79,-54 -9.09,-84.94 0.55,-23.51 -6.51,-39.83 -12.39,-49.44 z"
           style="fill:#ffffff;stroke:#263238;stroke-width:0.75px;stroke-linecap:round;stroke-linejoin:round"
           id="path323" /><path
           d="m 97.42,255.39 -26.6,18.45 c 0,0 13.11,13.86 11.75,50.22 -1,27.77 2.67,59.3 8,65.71 h 28.33 c 0,0 -9.78,-54 -9.08,-84.94 0.53,-23.51 -6.53,-39.83 -12.4,-49.44 z"
           style="fill:#263238;stroke:#263238;stroke-width:0.75px;stroke-linecap:round;stroke-linejoin:round"
           id="path325" /><polygon
           points="70.82,273.84 67.63,273.84 94.22,255.39 97.42,255.39 "
           style="fill:#ffffff;stroke:#263238;stroke-width:0.75px;stroke-linecap:round;stroke-linejoin:round"
           id="polygon327" /></g></g></g></svg>
